<svg class="w-1em h-1em" xmlns="http://www.w3.org/2000/svg" width="15.75" height="16.099" viewBox="0 0 15.75 16.099"><path d="M3.938-16.406a3.8,3.8,0,0,0-1.969.533A4.013,4.013,0,0,0,.533-14.437,3.8,3.8,0,0,0,0-12.469a3.366,3.366,0,0,0,.164.984,8.121,8.121,0,0,0,.41,1.066q.472,1.046,1.148,2.235Q2.563-6.747,3.4-5.537l.533.779L5-6.316Q5.64-7.28,6.152-8.183A20.572,20.572,0,0,0,7.3-10.418a8.121,8.121,0,0,0,.41-1.066,3.366,3.366,0,0,0,.164-.984,3.8,3.8,0,0,0-.533-1.969,4.013,4.013,0,0,0-1.436-1.436A3.8,3.8,0,0,0,3.938-16.406Zm-6.583,1.271L-7.875-12.9V-.308L-2.6-2.584,2.646-.615,7.875-2.851V-8.572q-.513.984-1.312,2.256v2.6L3.281-2.317V-3.384L1.969-5.291v3.035L-1.969-3.732v-9.762l.718.267A5.446,5.446,0,0,1-.9-14.5Zm6.583.041a2.6,2.6,0,0,1,1.323.349,2.554,2.554,0,0,1,.954.954,2.6,2.6,0,0,1,.349,1.323,2.49,2.49,0,0,1-.123.625,7.614,7.614,0,0,1-.328.892Q5.742-10.131,5-8.839q-.472.82-.964,1.538l-.1.164-.1-.164q-.492-.718-.964-1.538a22.116,22.116,0,0,1-1.107-2.112,7.614,7.614,0,0,1-.328-.892,2.49,2.49,0,0,1-.123-.625,2.6,2.6,0,0,1,.349-1.323,2.554,2.554,0,0,1,.954-.954A2.6,2.6,0,0,1,3.938-15.094Zm-7.219,1.641v9.741L-6.562-2.317v-9.721Z" transform="translate(7.875 16.406)" fill="#fad55b"></path></svg>