<svg xmlns="http://www.w3.org/2000/svg" width="50" height="50" viewBox="0 0 50 50"><path d="M-2.1-31.25a1.023,1.023,0,0,0-.269-.757,1.023,1.023,0,0,0-.757-.269H-8.35V-37.5a1.023,1.023,0,0,0-.269-.757,1.023,1.023,0,0,0-.757-.269,1.023,1.023,0,0,0-.757.269,1.023,1.023,0,0,0-.269.757v5.225h-5.225a1.023,1.023,0,0,0-.757.269,1.023,1.023,0,0,0-.269.757,1.023,1.023,0,0,0,.269.757,1.023,1.023,0,0,0,.757.269H-10.4V-25a1.023,1.023,0,0,0,.269.757,1.023,1.023,0,0,0,.757.269,1.023,1.023,0,0,0,.757-.269A1.023,1.023,0,0,0-8.35-25v-5.225h5.225a1.023,1.023,0,0,0,.757-.269A1.023,1.023,0,0,0-2.1-31.25ZM15.625-17.725H5.225a1.056,1.056,0,0,0-.781.293,1.056,1.056,0,0,0-.293.781.994.994,0,0,0,.293.732,1.056,1.056,0,0,0,.781.293h10.4a.975.975,0,0,0,.757-.293,1.043,1.043,0,0,0,.269-.732,1.111,1.111,0,0,0-.269-.781A.975.975,0,0,0,15.625-17.725Zm0,8.35H5.225a1.056,1.056,0,0,0-.781.293.994.994,0,0,0-.293.732,1.056,1.056,0,0,0,.293.781,1.056,1.056,0,0,0,.781.293h10.4a.975.975,0,0,0,.757-.293,1.111,1.111,0,0,0,.269-.781,1.043,1.043,0,0,0-.269-.732A.975.975,0,0,0,15.625-9.375Zm-10.4-20.85h10.4a1.023,1.023,0,0,0,.757-.269,1.023,1.023,0,0,0,.269-.757,1.023,1.023,0,0,0-.269-.757,1.023,1.023,0,0,0-.757-.269H5.225a1.111,1.111,0,0,0-.781.269.975.975,0,0,0-.293.757.975.975,0,0,0,.293.757A1.111,1.111,0,0,0,5.225-30.225ZM-3.32-18.555a1.136,1.136,0,0,0-.757-.293.965.965,0,0,0-.708.293L-9.18-14.16l-4.346-4.395a1.136,1.136,0,0,0-.757-.293.965.965,0,0,0-.708.293,1.05,1.05,0,0,0-.342.757.9.9,0,0,0,.342.708l4.346,4.395L-14.99-8.35a1.05,1.05,0,0,0-.342.757.9.9,0,0,0,.342.708.559.559,0,0,0,.317.171,3.945,3.945,0,0,0,.513.024,4.048,4.048,0,0,0,.488-.024.574.574,0,0,0,.342-.171l4.395-4.346L-4.59-6.885a.574.574,0,0,0,.342.171,4.048,4.048,0,0,0,.488.024,3.945,3.945,0,0,0,.513-.024.559.559,0,0,0,.317-.171.9.9,0,0,0,.342-.708A1.05,1.05,0,0,0-2.93-8.35L-7.275-12.7-2.93-17.09a1.107,1.107,0,0,1-.2-.635A2.829,2.829,0,0,0-3.32-18.555ZM16.65-46.875v2.1a6.06,6.06,0,0,1,4.468,1.782A6.06,6.06,0,0,1,22.9-38.525v33.3A6.06,6.06,0,0,1,21.118-.757,6.06,6.06,0,0,1,16.65,1.025h-33.3A6.06,6.06,0,0,1-21.118-.757,6.06,6.06,0,0,1-22.9-5.225v-33.3a6.06,6.06,0,0,1,1.782-4.468,6.06,6.06,0,0,1,4.468-1.782H4.15v-2.1h-20.8a8.048,8.048,0,0,0-5.908,2.441A8.048,8.048,0,0,0-25-38.525v33.3A8.048,8.048,0,0,0-22.559.684,8.048,8.048,0,0,0-16.65,3.125h33.3A8.048,8.048,0,0,0,22.559.684,8.048,8.048,0,0,0,25-5.225v-33.3a8.048,8.048,0,0,0-2.441-5.908A8.048,8.048,0,0,0,16.65-46.875Zm-8.3,2.1H12.5v-2.1H8.35Z" transform="translate(25 46.875)" fill="#184341"></path></svg>